HIERARCHY
ROOT Hips
{
 OFFSET 0.000000 0.000000 0.000000
 CHANNELS 6 Xposition Yposition Zposition Yrotation Xrotation Zrotation
 JOINT Chest
 {
  OFFSET 0.000000 9.585900 0.002600
  CHANNELS 3 Yrotation Xrotation Zrotation
  JOINT Chest2
  {
   OFFSET 0.000000 9.601200 -0.005300
   CHANNELS 3 Yrotation Xrotation Zrotation
   JOINT Chest3
   {
    OFFSET 0.000000 9.561800 0.000000
    CHANNELS 3 Yrotation Xrotation Zrotation
    JOINT Chest4
    {
     OFFSET 0.000000 9.552100 0.000000
     CHANNELS 3 Yrotation Xrotation Zrotation
     JOINT Neck
     {
      OFFSET 0.000000 14.453000 0.000000
      CHANNELS 3 Yrotation Xrotation Zrotation
      JOINT Head
      {
       OFFSET 0.000000 8.936500 -0.011300
       CHANNELS 3 Yrotation Xrotation Zrotation
       End Site
       {
        OFFSET 0.000000 17.073600 -0.006000
       }
      }
     }
     JOINT RightCollar
     {
      OFFSET -2.921100 9.558500 0.000000
      CHANNELS 3 Yrotation Xrotation Zrotation
      JOINT RightShoulder
      {
       OFFSET -13.519700 0.000000 0.000000
       CHANNELS 3 Yrotation Xrotation Zrotation
       JOINT RightElbow
       {
        OFFSET 0.000000 -29.696600 0.000000
        CHANNELS 3 Yrotation Xrotation Zrotation
        JOINT RightWrist
        {
         OFFSET 0.000000 -24.004700 0.000000
         CHANNELS 3 Yrotation Xrotation Zrotation
         End Site
         {
          OFFSET 0.000000 -17.728500 0.000000
         }
        }
       }
      }
     }
     JOINT LeftCollar
     {
      OFFSET 2.921100 9.558500 0.000000
      CHANNELS 3 Yrotation Xrotation Zrotation
      JOINT LeftShoulder
      {
       OFFSET 13.519700 0.000000 0.000000
       CHANNELS 3 Yrotation Xrotation Zrotation
       JOINT LeftElbow
       {
        OFFSET 0.000000 -29.696600 0.000000
        CHANNELS 3 Yrotation Xrotation Zrotation
        JOINT LeftWrist
        {
         OFFSET 0.000000 -24.004700 0.000000
         CHANNELS 3 Yrotation Xrotation Zrotation
         End Site
         {
          OFFSET 0.000000 -17.728500 0.000000
         }
        }
       }
      }
     }
    }
   }
  }
 }
 JOINT RightHip
 {
  OFFSET -7.771700 -0.012900 -0.001300
  CHANNELS 3 Yrotation Xrotation Zrotation
  JOINT RightKnee
  {
   OFFSET 0.000000 -40.869800 0.001200
   CHANNELS 3 Yrotation Xrotation Zrotation
   JOINT RightAnkle
   {
    OFFSET 0.000000 -39.717900 0.002100
    CHANNELS 3 Yrotation Xrotation Zrotation
    JOINT RightToe
    {
     OFFSET 0.000000 -4.965400 11.033500
     CHANNELS 3 Yrotation Xrotation Zrotation
     End Site
     {
      OFFSET 0.000000 -1.423100 5.872300
     }
    }
   }
  }
 }
 JOINT LeftHip
 {
  OFFSET 7.771700 -0.012900 -0.001300
  CHANNELS 3 Yrotation Xrotation Zrotation
  JOINT LeftKnee
  {
   OFFSET 0.000000 -40.869800 0.001200
   CHANNELS 3 Yrotation Xrotation Zrotation
   JOINT LeftAnkle
   {
    OFFSET 0.000000 -39.717900 0.002100
    CHANNELS 3 Yrotation Xrotation Zrotation
    JOINT LeftToe
    {
     OFFSET 0.000000 -4.965400 11.033500
     CHANNELS 3 Yrotation Xrotation Zrotation
     End Site
     {
      OFFSET 0.000000 -1.423100 5.872300
     }
    }
   }
  }
 }
}
MOTION
Frames: 5
Frame Time: 0.008333
0.000000 85.388000 0.000000 0.000000 -5.767877 0.000000 0.000000 11.653817 0.000000 0.000000 -5.885947 0.000000 0.000000 -0.000000 0.000000 0.000000 -0.000000 0.000000 0.000000 12.528835 0.000000 0.000000 0.711642 0.000000 0.000000 -0.000000 0.000000 0.000000 0.000000 -90.000000 0.000000 -2.309062 0.000000 0.000000 2.309062 0.000000 0.000000 -0.000000 0.000000 0.000000 -0.000000 90.000000 0.000000 -2.309062 0.000000 0.000000 2.309062 0.000000 0.000000 8.520406 0.000000 0.000000 1.905762 0.000000 -0.000000 -4.658285 0.000000 0.000000 -0.000000 0.000000 0.000000 8.520406 0.000000 0.000000 1.905762 0.000000 -0.000000 -4.658285 0.000000 0.000000 -0.000000 0.000000
-77.609935 51.154322 -7.011653 168.179468 -3.223574 0.988151 1.808641 8.675812 1.426096 0.081202 0.480169 0.037363 0.153890 0.796681 0.051939 1.547029 8.246964 0.701636 1.081628 14.969946 -0.652016 2.233727 -7.921038 -1.585049 3.074534 4.038574 -0.889161 5.950254 -14.018285 -19.942772 43.253671 -52.660728 -18.719114 -0.823122 6.045558 -42.658484 -5.016226 -0.042820 0.348633 -3.783872 -9.114821 13.947363 -66.624068 -55.516401 37.318250 -3.377903 6.325792 33.944732 -5.003088 -76.235040 -3.658260 -123.299125 80.007294 -123.935794 -3.932636 -18.216770 1.931237 -0.332289 0.791890 -0.193244 1.244070 -80.209777 12.149562 108.543843 78.447704 105.167806 -14.825184 -22.200265 0.703256 -0.376653 -1.081376 -0.137051
-77.604845 51.156310 -7.015317 168.196972 -3.234061 0.962042 1.799470 8.676877 1.448811 0.084803 0.447381 0.029912 0.144855 0.812071 0.057860 1.535272 8.230583 0.694718 1.102438 14.987450 -0.650537 2.290116 -7.868703 -1.593128 3.097897 3.976111 -0.900342 5.997648 -14.123426 -19.905198 43.050682 -52.377313 -18.580079 -0.832485 6.020701 -42.614662 -5.039266 -0.087781 0.326980 -3.850680 -9.203096 13.913552 -66.487674 -55.330509 37.244543 -3.414919 6.441913 33.947393 -5.197371 -76.217495 -3.517425 -123.426717 80.026094 -124.028574 -3.948639 -18.227591 1.881182 -0.297187 0.784491 -0.178556 1.140255 -80.193405 12.263582 108.528809 78.470507 105.151186 -14.844705 -22.206187 0.699947 -0.361452 -1.067765 -0.126327
-77.596202 51.158412 -7.022048 168.263487 -3.265417 0.917767 1.741428 8.687129 1.488789 0.078156 0.443470 0.027237 0.146511 0.821100 0.060420 1.487289 8.169034 0.675044 1.154338 15.031514 -0.645021 2.353860 -7.825706 -1.606921 3.154134 3.947457 -0.900949 6.047236 -14.229449 -19.875420 42.832917 -52.098277 -18.432848 -0.834944 5.997393 -42.551259 -5.030671 -0.100484 0.307909 -3.917541 -9.282635 13.880628 -66.352642 -55.144005 37.181959 -3.451235 6.569338 33.944376 -5.499350 -76.177498 -3.328715 -123.595541 80.027958 -124.111490 -4.047814 -18.199879 1.777158 -0.146839 0.722358 -0.125250 0.938037 -80.157223 12.441844 108.515314 78.492012 105.120295 -14.884031 -22.278717 0.715770 -0.305321 -0.973465 -0.117343
-77.591335 51.160137 -7.026455 168.290365 -3.276822 0.897985 1.709387 8.662615 1.497098 0.082108 0.467519 0.033684 0.145918 0.817571 0.060159 1.444562 8.128167 0.659567 1.201306 15.070018 -0.637476 2.478544 -7.841249 -1.659950 3.203109 3.951286 -0.894106 6.096192 -14.386527 -19.865913 42.610335 -51.823404 -18.280718 -0.829943 5.976310 -42.469593 -5.026155 -0.134773 0.288991 -3.989631 -9.354081 13.852759 -66.215313 -54.963548 37.125712 -3.486731 6.707952 33.933579 -5.750778 -76.157940 -3.181068 -123.799436 80.056713 -124.266869 -4.030717 -18.231455 1.709048 -0.119278 0.723912 -0.119053 0.903167 -80.142287 12.488245 108.507377 78.505407 105.090018 -14.872153 -22.268687 0.731766 -0.361044 -0.969772 -0.120120
